<svg viewBox="0 0 432 432" xmlns="http://www.w3.org/2000/svg">
  <!-- Brain icon -->
  <path d="M216 96C164.8 96 124 136.8 124 188c0 30 14.4 56.4 36.8 73.2-2 6.4-4.8 12.8-8.4 18.8-7.2 12-16 22.8-26.4 32 33.6-7.2 61.2-23.6 80.4-44.8 3.2 0.4 6.4 0.8 9.6 0.8 50.8 0 92-40.8 92-92S266.8 96 216 96zM180 220c-11.2 0-20-8.8-20-20s8.8-20 20-20 20 8.8 20 20-8.8 20-20 20zm72 0c-11.2 0-20-8.8-20-20s8.8-20 20-20 20 8.8 20 20-8.8 20-20 20z" fill="white"/>
  
  <!-- Heart -->
  <path d="M264 280c-12-12-28-12-40 0l-8 8-8-8c-12-12-28-12-40 0s-12 28 0 40l48 48 48-48c12-12 12-28 0-40z" fill="#FF6B6B"/>
</svg>
